<svg xmlns="http://www.w3.org/2000/svg" viewBox="0 0 24 24" fill="none">
  <path d="M4.105 4.105S9.158 1.58 11.684.316a3.079 3.079 0 0 1 1.481-.315c.766.047 1.677.788 1.677.788L24 9.948v9.789h-4.263V24H9.789l-9.342-9.342a2.96 2.96 0 0 1-.342-1.684c.047-.765.342-1.481.342-1.481L4.105 4.105z" fill="#00D2B8"/>
  <path d="M15.789 19.737v4.263h4.263V19.737h-4.263z" fill="#0081C6"/>
  <path d="M4.105 4.105L.447 7.763s-.295.716-.342 1.481a2.96 2.96 0 0 0 .342 1.684l9.342 9.342h9.948V9.948L9.789 0H4.105v4.105z" fill="#00D2B8"/>
  <path d="M4.105 0v4.105L0 8.21v1.579l4.105-4.105V0z" fill="#0081C6"/>
  <linearGradient id="a" gradientUnits="userSpaceOnUse" x1="6.158" y1="6.158" x2="13.263" y2="13.263">
    <stop offset="0" stop-color="#fff" stop-opacity=".1"/>
    <stop offset="1" stop-color="#fff" stop-opacity="0"/>
  </linearGradient>
  <path d="M4.105 4.105S9.158 1.58 11.684.316a3.079 3.079 0 0 1 1.481-.315c.766.047 1.677.788 1.677.788L24 9.948v9.789h-4.263V24H9.789l-9.342-9.342a2.96 2.96 0 0 1-.342-1.684c.047-.765.342-1.481.342-1.481L4.105 4.105z" fill="url(#a)"/>
</svg>
